<svg width="47" height="47" viewBox="0 0 47 47" fill="none" xmlns="http://www.w3.org/2000/svg">
<path d="M38.1875 44.0625H35.25V39.6562C35.2477 37.7093 34.4732 35.8427 33.0965 34.466C31.7198 33.0893 29.8532 32.3148 27.9062 32.3125H19.0938C17.1468 32.3148 15.2802 33.0893 13.9035 34.466C12.5268 35.8427 11.7523 37.7093 11.75 39.6562V44.0625H8.8125V39.6562C8.81561 36.9304 9.89981 34.3172 11.8272 32.3897C13.7547 30.4623 16.3679 29.3781 19.0938 29.375H27.9062C30.6321 29.3781 33.2453 30.4623 35.1728 32.3897C37.1002 34.3172 38.1844 36.9304 38.1875 39.6562V44.0625ZM7.34375 8.8125C6.95421 8.8125 6.58063 8.96724 6.30519 9.24269C6.02974 9.51813 5.875 9.89171 5.875 10.2812V23.5H8.8125V10.2812C8.8125 9.89171 8.65776 9.51813 8.38231 9.24269C8.10687 8.96724 7.73329 8.8125 7.34375 8.8125Z" fill="#1B4002"/>
<path d="M5.875 2.9375V5.875H13.2188V16.1562C13.2188 18.883 14.302 21.4981 16.2301 23.4262C18.1582 25.3543 20.7732 26.4375 23.5 26.4375C26.2268 26.4375 28.8418 25.3543 30.7699 23.4262C32.698 21.4981 33.7812 18.883 33.7812 16.1562V5.875H41.125V2.9375H5.875ZM16.1562 5.875H30.8438V10.2812H16.1562V5.875ZM23.5 23.5C21.5523 23.5 19.6844 22.7263 18.3072 21.3491C16.93 19.9718 16.1562 18.1039 16.1562 16.1562V13.2188H30.8438V16.1562C30.8438 18.1039 30.07 19.9718 28.6928 21.3491C27.3156 22.7263 25.4477 23.5 23.5 23.5Z" fill="#1B4002"/>
</svg>
