<svg width="14" height="14" viewBox="0 0 14 14" fill="none" xmlns="http://www.w3.org/2000/svg">
<path fill-rule="evenodd" clip-rule="evenodd" d="M2.12161 10.7587C-0.263193 8.37391 -0.263193 4.50739 2.12161 2.12259C4.50641 -0.262216 8.37294 -0.262216 10.7577 2.12259C12.9376 4.30242 13.1249 7.72023 11.3198 10.1129L13.7292 12.5223C14.3578 13.1508 13.415 14.0937 12.7864 13.4651L10.4058 11.0845C8.00654 13.1381 4.39237 13.0295 2.12161 10.7587ZM9.81493 3.06539C7.95083 1.20129 4.92852 1.20129 3.06442 3.06539C1.20032 4.9295 1.20032 7.95181 3.06442 9.81591C4.92852 11.68 7.95083 11.68 9.81493 9.81591C11.679 7.95181 11.679 4.9295 9.81493 3.06539Z" fill="#50B5FF"/>
</svg>
