<svg width="16" height="13" viewBox="0 0 16 13" fill="none" xmlns="http://www.w3.org/2000/svg">
<path fill-rule="evenodd" clip-rule="evenodd" d="M4.66699 3.33333H4.33366V11.3333H11.667V3.33333H11.3337H4.66699ZM13.0003 3.33333V11.3333H13.3337C13.7018 11.3333 14.0003 11.0349 14.0003 10.6667V4C14.0003 3.63181 13.7018 3.33333 13.3337 3.33333H13.0003ZM2.66699 3.33333H3.00033V11.3333H2.66699C2.2988 11.3333 2.00033 11.0349 2.00033 10.6667V4C2.00033 3.63181 2.2988 3.33333 2.66699 3.33333ZM11.3337 2L13.3337 2C14.4382 2 15.3337 2.89543 15.3337 4V10.6667C15.3337 11.7712 14.4382 12.6667 13.3337 12.6667H2.66699C1.56242 12.6667 0.666992 11.7712 0.666992 10.6667V4C0.666992 2.89543 1.56242 2 2.66699 2L4.66699 2C4.66699 0.89543 5.56242 0 6.66699 0H9.33366C10.4382 0 11.3337 0.89543 11.3337 2ZM10.0003 2C10.0003 1.63181 9.70185 1.33333 9.33366 1.33333H6.66699C6.2988 1.33333 6.00033 1.63181 6.00033 2H10.0003Z" fill="#50B5FF"/>
</svg>
