<svg width="12" height="15" viewBox="0 0 12 15" fill="none" xmlns="http://www.w3.org/2000/svg">
<path fill-rule="evenodd" clip-rule="evenodd" d="M0 6.24736C0 2.97903 2.68871 0.333984 6 0.333984C9.31129 0.333984 12 2.97903 12 6.24736C12 7.86175 11.3396 9.37376 10.1967 10.4735L6.46756 14.1425C6.20812 14.3978 5.79192 14.3978 5.53247 14.1426L1.79823 10.4689C0.656294 9.36458 0 7.85676 0 6.24736ZM9.26687 9.51793C10.1571 8.66128 10.6667 7.49458 10.6667 6.24736C10.6667 3.72034 8.57975 1.66732 6 1.66732C3.42025 1.66732 1.33333 3.72034 1.33333 6.24736C1.33333 7.49075 1.83976 8.65425 2.72922 9.51448L5.99997 12.7321L9.26687 9.51793ZM6 9.00065C7.47276 9.00065 8.66667 7.80674 8.66667 6.33398C8.66667 4.86123 7.47276 3.66732 6 3.66732C4.52724 3.66732 3.33333 4.86123 3.33333 6.33398C3.33333 7.80674 4.52724 9.00065 6 9.00065ZM6 7.66732C5.26362 7.66732 4.66667 7.07036 4.66667 6.33398C4.66667 5.5976 5.26362 5.00065 6 5.00065C6.73638 5.00065 7.33333 5.5976 7.33333 6.33398C7.33333 7.07036 6.73638 7.66732 6 7.66732Z" fill="#50B5FF"/>
</svg>
