<svg width="10" height="10" viewBox="0 0 10 10" fill="none" xmlns="http://www.w3.org/2000/svg">
<path fill-rule="evenodd" clip-rule="evenodd" d="M5.17299 9.17802C7.61035 9.17802 9.58622 7.20215 9.58622 4.76479C9.58622 2.32743 7.61035 0.351562 5.17299 0.351562C2.73564 0.351562 0.759766 2.32743 0.759766 4.76479C0.759766 7.20215 2.73564 9.17802 5.17299 9.17802ZM5.17293 8.37561C3.17872 8.37561 1.5621 6.75899 1.5621 4.76479C1.5621 2.77059 3.17872 1.15397 5.17293 1.15397C7.16713 1.15397 8.78375 2.77059 8.78375 4.76479C8.78375 6.75899 7.16713 8.37561 5.17293 8.37561ZM7.25651 3.18953C7.36106 2.87589 7.06267 2.5775 6.74903 2.68204L4.19579 3.53312C4.07599 3.57306 3.98198 3.66707 3.94205 3.78687L3.09097 6.3401C2.98642 6.65375 3.28481 6.95214 3.59846 6.84759L6.15169 5.99651C6.27149 5.95658 6.3655 5.86257 6.40544 5.74277L7.25651 3.18953ZM4.10555 5.83261L4.49382 4.66781L5.27944 5.44132L4.10555 5.83261ZM5.84836 4.8754L5.05357 4.09287L6.24115 3.69701L5.84836 4.8754Z" fill="#50B5FF"/>
</svg>
