<svg width="20" height="20" viewBox="0 0 20 20" fill="none" xmlns="http://www.w3.org/2000/svg">
<path fill-rule="evenodd" clip-rule="evenodd" d="M4.00039 0.400391H16.0004C17.9886 0.400391 19.6004 2.01217 19.6004 4.00039V16.0004C19.6004 17.9886 17.9886 19.6004 16.0004 19.6004H4.00039C2.01217 19.6004 0.400391 17.9886 0.400391 16.0004V4.00039C0.400391 2.01217 2.01217 0.400391 4.00039 0.400391Z" fill="#0062FF"/>
<path d="M6.83208 9.1369C6.36042 8.67131 5.60064 8.67623 5.13506 9.14789C4.66947 9.61954 4.67439 10.3793 5.14605 10.8449L8.19519 13.8548C8.69682 14.35 9.51518 14.3082 9.96379 13.7646L14.9146 7.76455C15.3364 7.25337 15.264 6.49703 14.7528 6.07523C14.2416 5.65343 13.4853 5.72589 13.0635 6.23708L8.94758 11.2252L6.83208 9.1369Z" fill="white"/>
</svg>
