<svg width="50" height="50" viewBox="0 0 50 50" fill="none" xmlns="http://www.w3.org/2000/svg">
<path d="M25.8797 35.1397C23.5742 33.2936 19.8359 33.2936 17.5305 35.1397C15.2273 36.9865 15.2273 39.9795 17.5305 41.8264C19.8351 43.6732 23.5734 43.6732 25.8797 41.8264C28.1836 39.9795 28.1836 36.9865 25.8797 35.1397ZM17.0203 32.4764C18.807 30.2568 18.2023 27.4529 15.6711 26.2154C13.139 24.9787 9.63983 25.7748 7.85311 27.9943C6.06874 30.2139 6.67186 33.0178 9.20233 34.2553C11.7351 35.4936 15.2351 34.6967 17.0203 32.4764ZM14.5961 21.8889C16.3062 19.9779 15.893 17.4256 13.6719 16.1881C11.4515 14.9498 8.26639 15.4951 6.55545 17.4061C4.84452 19.317 5.25858 21.8686 7.47889 23.1061C9.6992 24.3443 12.8859 23.799 14.5961 21.8889ZM16.1719 15.0842C18.2953 16.3201 21.382 15.8498 23.0648 14.0365C24.7484 12.2225 24.393 9.75137 22.2703 8.51621C20.1476 7.28028 17.0609 7.74981 15.3781 9.56309C13.6937 11.3772 14.0492 13.8482 16.1719 15.0842ZM34.0984 11.9303C35.989 10.9639 36.1992 9.06543 34.5672 7.68809C32.9367 6.31075 30.0781 5.97715 28.1867 6.94278C26.2945 7.9084 26.0851 9.80762 27.7172 11.185C29.3492 12.5623 32.2078 12.8959 34.0984 11.9303Z" fill="#1B4002"/>
<path d="M40.9959 25.9367C39.3052 25.4398 37.8467 25.0102 37.4459 24.0156C37.2138 23.4391 37.3045 22.5922 37.6982 21.4992C41.8904 17.5773 48.1623 11.2578 47.9857 8.68984C47.9154 7.66328 46.2795 6.19297 45.2068 6.19297L45.1224 6.19609C43.9615 6.27578 42.1873 7.81172 40.292 9.89141C40.133 9.41438 39.9287 8.95368 39.6818 8.51562C37.6935 5.08984 33.3224 3.125 27.6904 3.125C23.3115 3.125 18.4357 4.33203 13.5928 6.61563C7.37635 9.54688 2.73338 15.6594 1.76463 22.1891C1.04431 27.0375 1.90525 34.3703 10.0912 41.7789C13.7209 45.0656 19.4365 46.875 26.1826 46.875H26.1849C31.6006 46.875 37.0873 45.6695 41.2404 43.5703C45.8818 41.2227 48.4373 37.9758 48.4373 34.4266C48.4373 28.125 44.1357 26.8602 40.9959 25.9367ZM45.2068 7.36484C45.6998 7.36484 46.7904 8.38828 46.8162 8.76953C46.9654 10.9438 39.2201 18.65 34.0428 23.2453L33.1599 22.4773L32.5826 21.9734C36.4357 16.225 43.0248 7.51328 45.2068 7.36484ZM30.6763 24.2656L31.8654 22.9023L33.2178 24.082L32.031 25.4445L30.6763 24.2656ZM40.5357 42.175C36.5935 44.1688 31.3638 45.3125 26.1849 45.3125H26.1834C19.824 45.3125 14.4818 43.6461 11.1396 40.6203C3.46463 33.6758 2.6451 26.8891 3.30838 22.418C4.20369 16.3914 8.50213 10.7438 14.2607 8.02891C18.8959 5.84297 23.5404 4.6875 27.6904 4.6875C32.6771 4.6875 36.6537 6.41172 38.3295 9.3C38.6904 9.92109 38.9326 10.5852 39.0732 11.2805C35.5748 15.4078 32.0217 20.6969 31.3428 21.7172L29.1732 24.2047C28.0342 24.193 26.8935 24.6906 26.542 25.893C25.2467 30.3109 22.3615 33.0508 22.3615 33.0508C22.3615 33.0508 29.6748 31.6055 31.074 29.9633C31.8318 29.0742 32.199 28.0117 32.1904 27.043L34.4623 24.4383C34.7654 24.1719 35.2162 23.7711 35.7717 23.2695C35.7685 23.757 35.8357 24.2023 35.9951 24.5992C36.6787 26.2961 38.5607 26.8492 40.5537 27.4352C43.6607 28.3492 46.874 29.2938 46.874 34.4266C46.8748 37.3563 44.6224 40.1078 40.5357 42.175Z" fill="#1B4002"/>
<path d="M42.2822 31.0994C39.9775 29.2533 36.2385 29.2533 33.9338 31.0994C31.6291 32.9455 31.6299 35.9393 33.9338 37.7861C36.2377 39.633 39.9768 39.6322 42.2822 37.7861C44.5877 35.94 44.5869 32.9455 42.2822 31.0994ZM41.1471 36.876C39.4697 38.2205 36.7463 38.2205 35.0697 36.876C33.3924 35.5314 33.3924 33.3525 35.0697 32.0088C36.7463 30.6643 39.4697 30.6643 41.1471 32.0088C42.8244 33.3533 42.8244 35.5314 41.1471 36.876Z" fill="#1B4002"/>
</svg>
