<svg width="65" height="65" viewBox="0 0 65 65" fill="none" xmlns="http://www.w3.org/2000/svg">
<path d="M52.1047 39.2864L41.9257 34.4309L37.6214 32.3775C39.5012 31.1932 41.028 29.3654 42.0271 27.1639C42.8604 25.3285 43.2915 23.3361 43.2913 21.3204C43.2913 20.1328 43.1028 19.0051 42.8402 17.917C41.5597 12.6442 37.442 8.75977 32.4987 8.75977C27.6491 8.75977 23.5937 12.5057 22.2339 17.6284C21.92 18.8036 21.7042 20.0256 21.7042 21.3204C21.7042 23.5687 22.2294 25.665 23.1218 27.4882C24.1534 29.6033 25.6828 31.3473 27.5444 32.4685L23.4221 34.388L12.9129 39.2825C12.0003 39.7102 11.4004 40.7398 11.4004 41.8896V53.4369C11.4004 54.9845 12.4787 56.239 13.8099 56.239H29.4184V47.3977C29.4205 47.3065 29.4473 47.2176 29.4957 47.1403L29.4892 47.1364L32.0457 42.7086L32.0522 42.7125C32.1432 42.5565 32.305 42.446 32.4987 42.446C32.6924 42.446 32.8543 42.5559 32.9453 42.7125L32.9479 42.7106L32.9713 42.7515C32.9745 42.758 32.9791 42.7632 32.9817 42.7697L35.5043 47.1384L35.5011 47.1403C35.5496 47.2178 35.5763 47.307 35.5784 47.3984V56.2397H51.1869C52.5181 56.2397 53.5971 54.9852 53.5971 53.4375V41.8896C53.599 40.7437 53.0088 39.7238 52.1047 39.2864ZM35.503 36.3256L35.5095 36.3295L32.9524 40.7573L32.9459 40.7534C32.9016 40.8332 32.8369 40.8998 32.7585 40.9465C32.68 40.9932 32.5907 41.0183 32.4994 41.0193C32.4081 41.0183 32.3187 40.9932 32.2403 40.9465C32.1619 40.8998 32.0972 40.8332 32.0528 40.7534L32.0496 40.7554L32.0236 40.7105C32.0216 40.706 32.0177 40.7021 32.0158 40.6975L29.4931 36.3276L29.4957 36.3256C29.4472 36.2481 29.4205 36.159 29.4184 36.0676C29.4184 35.7783 29.653 35.5437 29.9423 35.5437H35.0552C35.3444 35.5437 35.5791 35.7783 35.5791 36.0676C35.578 36.159 35.5517 36.2483 35.503 36.3256Z" fill="#1B4002"/>
</svg>
