<svg width="109" height="82" viewBox="0 0 109 82" fill="none" xmlns="http://www.w3.org/2000/svg">
<path d="M54.3335 16.9798C54.3335 16.0792 53.9757 15.2154 53.3389 14.5786C52.702 13.9418 51.8383 13.584 50.9377 13.584C50.037 13.584 49.1733 13.9418 48.5364 14.5786C47.8996 15.2154 47.5418 16.0792 47.5418 16.9798V64.5215C47.5418 65.4221 47.8996 66.2859 48.5364 66.9227C49.1733 67.5595 50.037 67.9173 50.9377 67.9173C51.8383 67.9173 52.702 67.5595 53.3389 66.9227C53.9757 66.2859 54.3335 65.4221 54.3335 64.5215V16.9798ZM78.1043 22.9429C88.1696 13.2987 110.67 32.3969 78.1043 54.334C45.5383 32.3969 68.0391 13.2919 78.1043 22.9429ZM16.9793 20.3757C16.0787 20.3757 15.215 20.7334 14.5781 21.3703C13.9413 22.0071 13.5835 22.8709 13.5835 23.7715C13.5835 24.6721 13.9413 25.5359 14.5781 26.1727C15.215 26.8095 16.0787 27.1673 16.9793 27.1673H37.3543C38.255 27.1673 39.1187 26.8095 39.7555 26.1727C40.3924 25.5359 40.7502 24.6721 40.7502 23.7715C40.7502 22.8709 40.3924 22.0071 39.7555 21.3703C39.1187 20.7334 38.255 20.3757 37.3543 20.3757H16.9793ZM16.9793 33.959C16.0787 33.959 15.215 34.3168 14.5781 34.9536C13.9413 35.5904 13.5835 36.4542 13.5835 37.3548C13.5835 38.2554 13.9413 39.1192 14.5781 39.756C15.215 40.3929 16.0787 40.7507 16.9793 40.7507H37.3543C38.255 40.7507 39.1187 40.3929 39.7555 39.756C40.3924 39.1192 40.7502 38.2554 40.7502 37.3548C40.7502 36.4542 40.3924 35.5904 39.7555 34.9536C39.1187 34.3168 38.255 33.959 37.3543 33.959H16.9793ZM16.9793 47.5423C16.0787 47.5423 15.215 47.9001 14.5781 48.5369C13.9413 49.1738 13.5835 50.0375 13.5835 50.9381C13.5835 51.8388 13.9413 52.7025 14.5781 53.3394C15.215 53.9762 16.0787 54.334 16.9793 54.334H37.3543C38.255 54.334 39.1187 53.9762 39.7555 53.3394C40.3924 52.7025 40.7502 51.8388 40.7502 50.9381C40.7502 50.0375 40.3924 49.1738 39.7555 48.5369C39.1187 47.9001 38.255 47.5423 37.3543 47.5423H16.9793Z" fill="black"/>
<path fill-rule="evenodd" clip-rule="evenodd" d="M0 13.5833C0 9.98081 1.4311 6.52583 3.97847 3.97847C6.52584 1.4311 9.98081 0 13.5833 0H95.0833C98.6859 0 102.141 1.4311 104.688 3.97847C107.236 6.52583 108.667 9.98081 108.667 13.5833V67.9167C108.667 71.5192 107.236 74.9742 104.688 77.5215C102.141 80.0689 98.6859 81.5 95.0833 81.5H13.5833C9.98081 81.5 6.52584 80.0689 3.97847 77.5215C1.4311 74.9742 0 71.5192 0 67.9167V13.5833ZM13.5833 6.79167C11.7821 6.79167 10.0546 7.50721 8.7809 8.7809C7.50721 10.0546 6.79167 11.7821 6.79167 13.5833V67.9167C6.79167 69.7179 7.50721 71.4454 8.7809 72.7191C10.0546 73.9928 11.7821 74.7083 13.5833 74.7083H95.0833C96.8846 74.7083 98.6121 73.9928 99.8858 72.7191C101.159 71.4454 101.875 69.7179 101.875 67.9167V13.5833C101.875 11.7821 101.159 10.0546 99.8858 8.7809C98.6121 7.50721 96.8846 6.79167 95.0833 6.79167H13.5833Z" fill="black"/>
</svg>
