<svg width="31" height="32" viewBox="0 0 31 32" fill="none" xmlns="http://www.w3.org/2000/svg">
<path d="M26.258 11.3547C26.8132 11.3547 27.3488 11.2769 27.8564 11.1325C27.886 11.4748 27.9007 11.8221 27.9007 12.1709V18.6613L30.2302 23.7886C30.3361 24.0231 30.381 24.2801 30.3608 24.5361C30.3407 24.7921 30.2561 25.039 30.1148 25.2546C29.9734 25.4701 29.7798 25.6473 29.5516 25.7702C29.3233 25.893 29.0675 25.9576 28.8075 25.958H2.35919C2.09887 25.958 1.84269 25.8936 1.61398 25.7708C1.38528 25.648 1.19131 25.4706 1.04975 25.2548C0.908186 25.039 0.823522 24.7917 0.803467 24.5353C0.783411 24.2789 0.828602 24.0217 0.934924 23.787L3.25942 18.6596V12.1498L3.26764 11.7442C3.34298 9.61578 3.98249 7.54419 5.12228 5.73639C6.26208 3.92859 7.86223 2.44789 9.76285 1.44223C11.6635 0.436579 13.798 -0.0588121 15.9532 0.00556178C18.1084 0.0699357 20.2087 0.69182 22.0443 1.80908C21.2821 2.61898 20.7758 3.63106 20.5876 4.72112C20.3994 5.81117 20.5375 6.93178 20.985 7.94542C21.4324 8.95906 22.1697 9.82162 23.1064 10.4273C24.0431 11.0329 25.1385 11.3552 26.258 11.3547ZM20.4394 27.5855C20.2452 28.7197 19.6506 29.7493 18.7611 30.4917C17.8716 31.2342 16.7447 31.6416 15.5801 31.6416C14.4155 31.6416 13.2885 31.2342 12.3991 30.4917C11.5096 29.7493 10.915 28.7197 10.7208 27.5855H20.4394ZM26.258 9.73216C27.3472 9.73216 28.3918 9.30478 29.162 8.54405C29.9322 7.78332 30.3649 6.75154 30.3649 5.6757C30.3649 4.59986 29.9322 3.56808 29.162 2.80734C28.3918 2.04661 27.3472 1.61923 26.258 1.61923C25.1688 1.61923 24.1242 2.04661 23.354 2.80734C22.5838 3.56808 22.1511 4.59986 22.1511 5.6757C22.1511 6.75154 22.5838 7.78332 23.354 8.54405C24.1242 9.30478 25.1688 9.73216 26.258 9.73216Z" fill="white"/>
<path d="M30.9161 5.53125C30.9161 8.01653 28.862 10.0312 26.3282 10.0312C23.7943 10.0312 21.7402 8.01653 21.7402 5.53125C21.7402 3.04597 23.7943 1.03125 26.3282 1.03125C28.862 1.03125 30.9161 3.04597 30.9161 5.53125Z" fill="#FC5A5A"/>
</svg>
