<svg width="31" height="32" viewBox="0 0 31 32" fill="none" xmlns="http://www.w3.org/2000/svg">
<path d="M25.8674 11.3547C26.4226 11.3547 26.9582 11.2769 27.4658 11.1325C27.4953 11.4748 27.5101 11.8221 27.5101 12.1709V18.6613L29.8395 23.7886C29.9455 24.0231 29.9904 24.2801 29.9702 24.5361C29.9501 24.7921 29.8655 25.039 29.7241 25.2546C29.5828 25.4701 29.3892 25.6473 29.1609 25.7702C28.9326 25.893 28.6769 25.9576 28.4169 25.958H1.96857C1.70824 25.958 1.45207 25.8936 1.22336 25.7708C0.994655 25.648 0.800689 25.4706 0.659125 25.2548C0.517561 25.039 0.432897 24.7917 0.412842 24.5353C0.392786 24.2789 0.437977 24.0217 0.544299 23.787L2.8688 18.6596V12.1498L2.87701 11.7442C2.95235 9.61578 3.59187 7.54419 4.73166 5.73639C5.87145 3.92859 7.4716 2.44789 9.37223 1.44223C11.2729 0.436579 13.4074 -0.0588121 15.5626 0.00556178C17.7177 0.0699357 19.8181 0.69182 21.6537 1.80908C20.8915 2.61898 20.3852 3.63106 20.197 4.72112C20.0088 5.81117 20.1469 6.93178 20.5944 7.94542C21.0418 8.95906 21.7791 9.82162 22.7158 10.4273C23.6525 11.0329 24.7478 11.3552 25.8674 11.3547ZM20.0487 27.5855C19.8545 28.7197 19.26 29.7493 18.3705 30.4917C17.481 31.2342 16.354 31.6416 15.1895 31.6416C14.0249 31.6416 12.8979 31.2342 12.0084 30.4917C11.1189 29.7493 10.5244 28.7197 10.3302 27.5855H20.0487ZM25.8674 9.73216C26.9566 9.73216 28.0012 9.30478 28.7714 8.54405C29.5416 7.78332 29.9743 6.75154 29.9743 5.6757C29.9743 4.59986 29.5416 3.56808 28.7714 2.80734C28.0012 2.04661 26.9566 1.61923 25.8674 1.61923C24.7782 1.61923 23.7336 2.04661 22.9634 2.80734C22.1932 3.56808 21.7605 4.59986 21.7605 5.6757C21.7605 6.75154 22.1932 7.78332 22.9634 8.54405C23.7336 9.30478 24.7782 9.73216 25.8674 9.73216Z" fill="white"/>
<path d="M30.5255 5.53125C30.5255 8.01653 28.4714 10.0312 25.9375 10.0312C23.4037 10.0312 21.3496 8.01653 21.3496 5.53125C21.3496 3.04597 23.4037 1.03125 25.9375 1.03125C28.4714 1.03125 30.5255 3.04597 30.5255 5.53125Z" fill="#FC5A5A"/>
</svg>
