<svg width="54" height="54" viewBox="0 0 54 54" fill="none" xmlns="http://www.w3.org/2000/svg">
<path d="M20.25 33.75C14.2425 33.75 2.25 36.765 2.25 42.75V47.25H38.25V42.75C38.25 36.765 26.2575 33.75 20.25 33.75ZM49.725 15.39C49.7475 15.1425 49.77 14.895 49.77 14.625C49.77 14.355 49.7475 14.1075 49.7025 13.86L51.3675 12.555C51.525 12.4425 51.5475 12.2175 51.4575 12.06L49.8825 9.3375C49.7925 9.1575 49.5675 9.1125 49.41 9.1575L47.475 9.945C47.07 9.63 46.62 9.3825 46.1475 9.18L45.855 7.0875C45.838 6.99256 45.7881 6.90665 45.714 6.84491C45.6399 6.78317 45.5464 6.74956 45.45 6.75H42.3C42.0975 6.75 41.94 6.885 41.9175 7.0875L41.625 9.18C41.1525 9.3825 40.7025 9.6525 40.2975 9.945L38.34 9.1575C38.16 9.09 37.9575 9.1575 37.8675 9.3375L36.2925 12.06C36.2025 12.24 36.225 12.4425 36.3825 12.555L38.0475 13.86C37.958 14.3661 37.958 14.8839 38.0475 15.39L36.3825 16.695C36.225 16.8075 36.2025 17.0325 36.2925 17.19L37.8675 19.9125C37.9575 20.0925 38.1825 20.1375 38.34 20.0925L40.2975 19.305C40.7025 19.62 41.1525 19.8675 41.625 20.07L41.9175 22.1625C41.94 22.365 42.0975 22.5 42.3 22.5H45.45C45.6525 22.5 45.81 22.365 45.8325 22.1625L46.125 20.07C46.5975 19.8675 47.0475 19.5975 47.4525 19.305L49.41 20.0925C49.59 20.16 49.7925 20.0925 49.8825 19.9125L51.4575 17.19C51.5475 17.01 51.525 16.8075 51.3675 16.695L49.725 15.39ZM43.875 17.4375C43.1291 17.4375 42.4137 17.1412 41.8863 16.6137C41.3588 16.0863 41.0625 15.3709 41.0625 14.625C41.0625 13.8791 41.3588 13.1637 41.8863 12.6363C42.4137 12.1088 43.1291 11.8125 43.875 11.8125C44.6209 11.8125 45.3363 12.1088 45.8637 12.6363C46.3912 13.1637 46.6875 13.8791 46.6875 14.625C46.6875 15.3709 46.3912 16.0863 45.8637 16.6137C45.3363 17.1412 44.6209 17.4375 43.875 17.4375ZM44.82 26.28L43.695 24.3225C43.6275 24.1875 43.47 24.1425 43.3575 24.1875L41.9625 24.75C41.67 24.525 41.355 24.345 41.0175 24.21L40.815 22.725C40.7919 22.6597 40.7493 22.6031 40.693 22.5629C40.6366 22.5226 40.5692 22.5007 40.5 22.5H38.25C38.115 22.5 38.0025 22.59 37.98 22.7475L37.7775 24.2325C37.44 24.3675 37.125 24.57 36.8325 24.7725L35.4375 24.21C35.3025 24.165 35.1675 24.21 35.1 24.345L33.975 26.3025C33.9075 26.4375 33.93 26.5725 34.0425 26.6625L35.235 27.585C35.2125 27.765 35.19 27.945 35.19 28.125C35.19 28.305 35.2125 28.5075 35.235 28.665L34.0425 29.5875C33.93 29.6775 33.9075 29.835 33.975 29.9475L35.1 31.905C35.1675 32.04 35.325 32.085 35.4375 32.04L36.8325 31.4775C37.125 31.7025 37.44 31.8825 37.7775 32.0175L37.98 33.5025C38.0025 33.66 38.115 33.75 38.25 33.75H40.5C40.635 33.75 40.77 33.66 40.77 33.5025L40.9725 32.0175C41.31 31.8825 41.625 31.68 41.9175 31.4775L43.3125 32.04C43.4475 32.085 43.5825 32.04 43.65 31.905L44.775 29.9475C44.8425 29.8125 44.82 29.6775 44.7075 29.5875L43.5375 28.665C43.56 28.485 43.5825 28.305 43.5825 28.125C43.5825 27.945 43.56 27.7425 43.5375 27.585L44.73 26.6625C44.8425 26.5725 44.865 26.415 44.82 26.28ZM39.375 29.9925C38.34 29.9925 37.5075 29.1375 37.5075 28.125C37.5075 27.09 38.3625 26.2575 39.375 26.2575C40.3875 26.2575 41.2425 27.1125 41.2425 28.125C41.2425 29.16 40.41 29.9925 39.375 29.9925ZM10.665 20.25H29.8575C30.465 20.25 30.96 19.755 30.96 19.1475V19.1025C30.96 18.8101 30.8438 18.5297 30.6371 18.3229C30.4303 18.1162 30.1499 18 29.8575 18H29.25C29.25 14.67 27.4275 11.8125 24.75 10.2375V12.375C24.75 13.005 24.255 13.5 23.625 13.5C22.995 13.5 22.5 13.005 22.5 12.375V9.315C21.78 9.135 21.0375 9 20.25 9C19.4625 9 18.72 9.135 18 9.315V12.375C18 13.005 17.505 13.5 16.875 13.5C16.245 13.5 15.75 13.005 15.75 12.375V10.2375C13.0725 11.8125 11.25 14.67 11.25 18H10.665C10.5202 18 10.3769 18.0285 10.2431 18.0839C10.1093 18.1393 9.98779 18.2205 9.88541 18.3229C9.78304 18.4253 9.70183 18.5468 9.64642 18.6806C9.59102 18.8144 9.5625 18.9577 9.5625 19.1025V19.17C9.5625 19.755 10.0575 20.25 10.665 20.25ZM20.25 29.25C24.435 29.25 27.9225 26.37 28.935 22.5H11.565C12.5775 26.37 16.065 29.25 20.25 29.25Z" fill="#1B4002"/>
</svg>
