<svg width="26" height="22" viewBox="0 0 26 22" fill="none" xmlns="http://www.w3.org/2000/svg">
<path d="M8.06221 0.285156C4.17393 0.285156 0.861328 3.27744 0.861328 7.16368C0.861328 9.84462 2.08107 12.1017 3.69762 13.9714C5.30862 15.8347 7.38706 17.3987 9.26604 18.7078L12.508 20.9663C12.863 21.2137 13.3286 21.2137 13.6837 20.9663L16.9256 18.7078C18.8046 17.3987 20.883 15.8347 22.494 13.9714C24.1106 12.1017 25.3303 9.84462 25.3303 7.16368C25.3303 3.27744 22.0177 0.285156 18.1295 0.285156C16.1251 0.285156 14.3614 1.25242 13.0958 2.50398C11.8302 1.25242 10.0665 0.285156 8.06221 0.285156Z" fill="white"/>
</svg>
