<svg width="15" height="25" viewBox="0 0 15 25" fill="none" xmlns="http://www.w3.org/2000/svg">
<path fill-rule="evenodd" clip-rule="evenodd" d="M5.29372 1.92211C6.52364 0.691404 8.19177 0 9.93113 0H13.304C13.8214 0 14.2409 0.419733 14.2409 0.9375V5.4375C14.2409 5.95527 13.8214 6.375 13.304 6.375H9.93113C9.88144 6.375 9.83378 6.39475 9.79864 6.42992C9.7635 6.46508 9.74375 6.51277 9.74375 6.5625V9H13.304C13.5925 9 13.8649 9.133 14.0424 9.36055C14.22 9.5881 14.2829 9.88481 14.2129 10.1649L13.0886 14.6649C12.9843 15.0822 12.6096 15.375 12.1797 15.375H9.74375V23.4375C9.74375 23.9553 9.32429 24.375 8.80685 24.375H4.30974C3.7923 24.375 3.37284 23.9553 3.37284 23.4375V15.375H0.936899C0.419464 15.375 0 14.9553 0 14.4375V9.9375C0 9.41973 0.419464 9 0.936899 9H3.37284V6.5625C3.37284 4.82202 4.0638 3.15282 5.29372 1.92211ZM9.93113 1.875C8.68873 1.875 7.49721 2.36886 6.61869 3.24794C5.74018 4.12701 5.24664 5.3193 5.24664 6.5625V9.9375C5.24664 10.4553 4.82717 10.875 4.30974 10.875H1.8738V13.5H4.30974C4.82717 13.5 5.24664 13.9197 5.24664 14.4375V22.5H7.86996V14.4375C7.86996 13.9197 8.28942 13.5 8.80685 13.5H11.4482L12.104 10.875H8.80685C8.28942 10.875 7.86996 10.4553 7.86996 9.9375V6.5625C7.86996 6.01549 8.08712 5.49089 8.47366 5.10409C8.86021 4.7173 9.38447 4.5 9.93113 4.5H12.3671V1.875H9.93113Z" fill="#4FA47B"/>
</svg>
