<svg width="20" height="22" viewBox="0 0 20 22" fill="none" xmlns="http://www.w3.org/2000/svg">
<path fill-rule="evenodd" clip-rule="evenodd" d="M11.5469 5.7037H0.857143C0.383756 5.7037 0 5.1565 0 4.48148C0 3.80647 0.383756 3.25926 0.857143 3.25926H11.5469C11.92 1.37826 13.1328 0 14.5714 0C16.01 0 17.2229 1.37826 17.596 3.25926H19.1429C19.6162 3.25926 20 3.80647 20 4.48148C20 5.1565 19.6162 5.7037 19.1429 5.7037H17.596C17.2229 7.58471 16.01 8.96296 14.5714 8.96296C13.1328 8.96296 11.92 7.58471 11.5469 5.7037ZM13.1429 4.48148C13.1429 3.35646 13.7825 2.44444 14.5714 2.44444C15.3604 2.44444 16 3.35646 16 4.48148C16 5.60651 15.3604 6.51852 14.5714 6.51852C13.7825 6.51852 13.1429 5.60651 13.1429 4.48148Z" fill="white"/>
<path fill-rule="evenodd" clip-rule="evenodd" d="M8.45312 18.7407H19.1429C19.6162 18.7407 20 18.1935 20 17.5185C20 16.8435 19.6162 16.2963 19.1429 16.2963H8.45312C8.08002 14.4153 6.86717 13.037 5.42857 13.037C3.98997 13.037 2.77712 14.4153 2.40402 16.2963H0.857143C0.383756 16.2963 0 16.8435 0 17.5185C0 18.1935 0.383756 18.7407 0.857143 18.7407H2.40402C2.77712 20.6217 3.98997 22 5.42857 22C6.86717 22 8.08002 20.6217 8.45312 18.7407ZM4 17.5185C4 16.3935 4.63959 15.4815 5.42857 15.4815C6.21755 15.4815 6.85714 16.3935 6.85714 17.5185C6.85714 18.6435 6.21755 19.5556 5.42857 19.5556C4.63959 19.5556 4 18.6435 4 17.5185Z" fill="white"/>
</svg>
