<svg width="22" height="24" viewBox="0 0 22 24" fill="none" xmlns="http://www.w3.org/2000/svg">
<path fill-rule="evenodd" clip-rule="evenodd" d="M0.225766 6.20142C-0.102445 10.3403 -0.0878147 15.1137 0.368895 19.2357C0.621603 21.5165 1.99314 23.2651 3.68615 23.4648L5.45551 23.6735C9.14487 24.1088 12.8551 24.1088 16.5445 23.6735L18.3138 23.4648C20.0068 23.2651 21.3784 21.5165 21.6311 19.2357C22.0878 15.1137 22.1025 10.3405 21.7742 6.20167C21.7318 5.72185 21.6841 5.24266 21.6311 4.76429C21.3784 2.48348 20.0068 0.734946 18.3138 0.535203L16.5445 0.326454C12.8551 -0.108818 9.14487 -0.108818 5.45551 0.326454L3.68615 0.535204C1.99314 0.734946 0.621603 2.48348 0.368895 4.76429C0.315901 5.24258 0.268192 5.72168 0.225766 6.20142ZM5.6077 2.70263C9.1958 2.2793 12.8042 2.2793 16.3923 2.70263L18.1616 2.91138C19.0454 3.01564 19.7613 3.92838 19.8933 5.11897C19.907 5.24261 19.9203 5.36631 19.9332 5.49006L13.4181 10.4026C11.9142 11.5365 10.0857 11.5365 8.58183 10.4026L2.06674 5.49011C2.0797 5.36634 2.09303 5.24263 2.10673 5.11897C2.23864 3.92838 2.95459 3.01564 3.83834 2.91138L5.6077 2.70263ZM20.1483 8.05641C20.3755 11.6623 20.2905 15.2954 19.8933 18.881C19.7613 20.0716 19.0454 20.9844 18.1616 21.0886L16.3923 21.2974C12.8042 21.7207 9.1958 21.7207 5.6077 21.2974L3.83834 21.0886C2.95459 20.9844 2.23864 20.0716 2.10673 18.881C1.70946 15.2955 1.62445 11.6624 1.8517 8.05647L7.72837 12.4875C9.76297 14.0216 12.2369 14.0216 14.2715 12.4875L20.1483 8.05641Z" fill="#4FA47B"/>
</svg>
