<svg width="21" height="18" viewBox="0 0 21 18" fill="none" xmlns="http://www.w3.org/2000/svg">
<path d="M6.18 0C2.84297 0 0 2.5812 0 5.93354C0 8.24617 1.04682 10.1932 2.43419 11.806C3.81679 13.4134 5.60057 14.7625 7.21317 15.8917L9.99551 17.84C10.3002 18.0533 10.6998 18.0533 11.0045 17.84L13.7868 15.8917C15.3994 14.7625 17.1832 13.4134 18.5658 11.806C19.9532 10.1932 21 8.24617 21 5.93354C21 2.5812 18.157 0 14.82 0C13.0998 0 11.5862 0.834379 10.5 1.914C9.41381 0.834379 7.90017 0 6.18 0Z" fill="white"/>
</svg>
