<svg width="24" height="24" viewBox="0 0 24 24" fill="none" xmlns="http://www.w3.org/2000/svg">
<path d="M7.06286 0C3.24911 0 0 3.4416 0 7.91139C0 10.9949 1.19636 13.5909 2.78193 15.7414C4.36205 17.8845 6.40066 19.6833 8.24362 21.1889L11.4234 23.7866C11.7717 24.0711 12.2283 24.0711 12.5766 23.7866L15.7564 21.1889C17.5993 19.6833 19.6379 17.8845 21.2181 15.7414C22.8036 13.5909 24 10.9949 24 7.91139C24 3.4416 20.7509 0 16.9371 0C14.9712 0 13.2414 1.11251 12 2.552C10.7586 1.11251 9.02876 0 7.06286 0Z" fill="white"/>
</svg>
