<svg width="26" height="26" viewBox="0 0 26 26" fill="none" xmlns="http://www.w3.org/2000/svg">
<path fill-rule="evenodd" clip-rule="evenodd" d="M3.4353 0C1.53804 0 0 1.53902 0 3.4375C0 5.33598 1.53804 6.875 3.4353 6.875C5.33256 6.875 6.8706 5.33598 6.8706 3.4375C6.8706 1.53902 5.33256 0 3.4353 0ZM1.8738 3.4375C1.8738 2.57456 2.57291 1.875 3.4353 1.875C4.29769 1.875 4.9968 2.57456 4.9968 3.4375C4.9968 4.30045 4.29769 5 3.4353 5C2.57291 5 1.8738 4.30045 1.8738 3.4375Z" fill="#4FA47B"/>
<path fill-rule="evenodd" clip-rule="evenodd" d="M0 8.4375C0 7.91973 0.419464 7.5 0.936899 7.5H5.9337C6.45113 7.5 6.8706 7.91973 6.8706 8.4375V24.6875C6.8706 25.2053 6.45113 25.625 5.9337 25.625H0.936899C0.419464 25.625 0 25.2053 0 24.6875V8.4375ZM1.8738 9.375V23.75H4.9968V9.375H1.8738Z" fill="#4FA47B"/>
<path fill-rule="evenodd" clip-rule="evenodd" d="M8.74439 8.4375C8.74439 7.91973 9.16386 7.5 9.68129 7.5H14.6781C15.1955 7.5 15.615 7.91973 15.615 8.4375V8.98003L16.1587 8.74685C17.0936 8.34595 18.0933 8.09456 19.1043 8.00258C22.5708 7.68725 25.6086 10.413 25.6086 13.9128V24.6875C25.6086 25.2053 25.1891 25.625 24.6717 25.625H19.6749C19.1575 25.625 18.738 25.2053 18.738 24.6875V15.9375C18.738 15.5231 18.5735 15.1257 18.2806 14.8326C17.9878 14.5396 17.5906 14.375 17.1765 14.375C16.7624 14.375 16.3652 14.5396 16.0723 14.8326C15.7795 15.1257 15.615 15.5231 15.615 15.9375V24.6875C15.615 25.2053 15.1955 25.625 14.6781 25.625H9.68129C9.16386 25.625 8.74439 25.2053 8.74439 24.6875V8.4375ZM10.6182 9.375V23.75H13.7412V15.9375C13.7412 15.0258 14.1031 14.1515 14.7474 13.5068C15.3916 12.8622 16.2654 12.5 17.1765 12.5C18.0876 12.5 18.9614 12.8622 19.6056 13.5068C20.2499 14.1515 20.6118 15.0258 20.6118 15.9375V23.75H23.7348V13.9128C23.7348 11.5323 21.6599 9.65284 19.274 9.86988C18.4569 9.94421 17.6492 10.1476 16.8969 10.4702L15.0472 11.2635C14.7577 11.3876 14.4253 11.3579 14.1623 11.1845C13.8994 11.011 13.7412 10.7169 13.7412 10.4018V9.375H10.6182Z" fill="#4FA47B"/>
</svg>
