<svg width="24" height="24" viewBox="0 0 24 24" fill="none" xmlns="http://www.w3.org/2000/svg">
<path d="M17.0836 5.65587C17.0836 4.95512 17.6526 4.38705 18.3545 4.38705C19.0564 4.38705 19.6254 4.95512 19.6254 5.65587C19.6254 6.35663 19.0564 6.9247 18.3545 6.9247C17.6526 6.9247 17.0836 6.35663 17.0836 5.65587Z" fill="#4FA47B"/>
<path fill-rule="evenodd" clip-rule="evenodd" d="M12 5.97308C8.66595 5.97308 5.96318 8.67142 5.96318 12C5.96318 15.3286 8.66595 18.0269 12 18.0269C15.334 18.0269 18.0368 15.3286 18.0368 12C18.0368 8.67142 15.334 5.97308 12 5.97308ZM7.86954 12C7.86954 9.72255 9.7188 7.87632 12 7.87632C14.2812 7.87632 16.1304 9.72255 16.1304 12C16.1304 14.2774 14.2812 16.1237 12 16.1237C9.7188 16.1237 7.86954 14.2774 7.86954 12Z" fill="#4FA47B"/>
<path fill-rule="evenodd" clip-rule="evenodd" d="M18.6827 0.368696C14.277 -0.122899 9.72296 -0.122899 5.31727 0.368696C2.76014 0.654026 0.695765 2.66513 0.395129 5.23136C-0.13171 9.72846 -0.13171 14.2715 0.395129 18.7686C0.695765 21.3349 2.76014 23.346 5.31727 23.6313C9.72296 24.1229 14.277 24.1229 18.6827 23.6313C21.2399 23.346 23.3042 21.3349 23.6049 18.7686C24.1317 14.2715 24.1317 9.72846 23.6049 5.23136C23.3042 2.66513 21.2399 0.654026 18.6827 0.368696ZM5.52902 2.26016C9.79398 1.78427 14.206 1.78427 18.471 2.26016C20.1614 2.44878 21.5156 3.78056 21.7114 5.45246C22.221 9.80266 22.221 14.1973 21.7114 18.5475C21.5156 20.2194 20.1614 21.5512 18.471 21.7398C14.206 22.2157 9.79398 22.2157 5.52902 21.7398C3.83858 21.5512 2.48444 20.2194 2.28858 18.5475C1.77895 14.1973 1.77895 9.80266 2.28858 5.45246C2.48444 3.78056 3.83858 2.44878 5.52902 2.26016Z" fill="#4FA47B"/>
</svg>
