<svg width="25" height="22" viewBox="0 0 25 22" fill="none" xmlns="http://www.w3.org/2000/svg">
<path d="M7.67158 0.285156C3.78331 0.285156 0.470703 3.27744 0.470703 7.16368C0.470703 9.84462 1.69044 12.1017 3.307 13.9714C4.918 15.8347 6.99644 17.3987 8.87542 18.7078L12.1174 20.9663C12.4724 21.2137 12.938 21.2137 13.293 20.9663L16.535 18.7078C18.414 17.3987 20.4924 15.8347 22.1034 13.9714C23.72 12.1017 24.9397 9.84462 24.9397 7.16368C24.9397 3.27744 21.6271 0.285156 17.7388 0.285156C15.7345 0.285156 13.9708 1.25242 12.7052 2.50398C11.4396 1.25242 9.6759 0.285156 7.67158 0.285156Z" fill="white"/>
</svg>
