<svg width="40" height="40" viewBox="0 0 40 40" fill="none" xmlns="http://www.w3.org/2000/svg">
<path d="M32.6667 8.33333V7.33333H31.6667H8.33333H7.33333V8.33333V25.9767V28.3909L9.04044 26.6838L13.3333 22.3909L17.6262 26.6838L18.3333 27.3909L19.0404 26.6838L25 20.7242L30.9596 26.6838L32.6667 28.3909V25.9767V8.33333ZM7.33333 31.6667V32.6667H8.33333H31.6667H32.6667V31.6667V30.69V30.2758L32.3738 29.9829L25.7071 23.3162L25 22.6091L24.2929 23.3162L18.3333 29.2758L14.0404 24.9829L13.3333 24.2758L12.6262 24.9829L7.62623 29.9829L7.33333 30.2758V30.69V31.6667ZM6 34V6H34V34H6Z" fill="#1C3A27" stroke="#1C3A27" stroke-width="2"/>
<path d="M16.6665 20C17.6554 20 18.6221 19.7068 19.4444 19.1573C20.2666 18.6079 20.9075 17.827 21.2859 16.9134C21.6643 15.9998 21.7634 14.9945 21.5704 14.0246C21.3775 13.0546 20.9013 12.1637 20.202 11.4645C19.5028 10.7652 18.6119 10.289 17.642 10.0961C16.6721 9.90315 15.6667 10.0022 14.7531 10.3806C13.8395 10.759 13.0586 11.3999 12.5092 12.2222C11.9597 13.0444 11.6665 14.0111 11.6665 15C11.6665 16.3261 12.1933 17.5979 13.131 18.5355C14.0687 19.4732 15.3404 20 16.6665 20ZM16.6665 13.3333C16.9961 13.3333 17.3184 13.4311 17.5925 13.6142C17.8665 13.7974 18.0802 14.0577 18.2063 14.3622C18.3324 14.6667 18.3655 15.0019 18.3011 15.3252C18.2368 15.6485 18.0781 15.9454 17.845 16.1785C17.6119 16.4116 17.315 16.5703 16.9917 16.6346C16.6684 16.699 16.3332 16.6659 16.0287 16.5398C15.7242 16.4137 15.4639 16.2 15.2807 15.926C15.0976 15.6519 14.9998 15.3296 14.9998 15C14.9998 14.558 15.1754 14.1341 15.488 13.8215C15.8006 13.5089 16.2245 13.3333 16.6665 13.3333Z" fill="black"/>
</svg>
