<svg width="20" height="20" viewBox="0 0 20 20" fill="none" xmlns="http://www.w3.org/2000/svg">
<path fill-rule="evenodd" clip-rule="evenodd" d="M4.00039 0.400391H16.0004C17.9886 0.400391 19.6004 2.01217 19.6004 4.00039V16.0004C19.6004 17.9886 17.9886 19.6004 16.0004 19.6004H4.00039C2.01217 19.6004 0.400391 17.9886 0.400391 16.0004V4.00039C0.400391 2.01217 2.01217 0.400391 4.00039 0.400391ZM4.00039 1.60039C2.67491 1.60039 1.60039 2.67491 1.60039 4.00039V16.0004C1.60039 17.3259 2.67491 18.4004 4.00039 18.4004H16.0004C17.3259 18.4004 18.4004 17.3259 18.4004 16.0004V4.00039C18.4004 2.67491 17.3259 1.60039 16.0004 1.60039H4.00039Z" fill="#B5B5BE"/>
</svg>
