<svg width="14" height="14" viewBox="0 0 14 14" fill="none" xmlns="http://www.w3.org/2000/svg">
<path fill-rule="evenodd" clip-rule="evenodd" d="M13.6663 2.33398V11.7885C13.6663 12.8247 12.8321 13.6673 11.7997 13.6673H2.19967C1.16723 13.6673 0.333008 12.8247 0.333008 11.7885V2.33398C0.333008 1.22941 1.22844 0.333984 2.33301 0.333984H11.6663C12.7709 0.333984 13.6663 1.22941 13.6663 2.33398ZM12.333 10.8868C12.1245 10.9605 11.9001 11.0007 11.6663 11.0007H2.33301C2.09925 11.0007 1.87486 10.9605 1.66634 10.8868V11.7885C1.66634 12.0913 1.90663 12.334 2.19967 12.334H11.7997C12.0927 12.334 12.333 12.0913 12.333 11.7885V10.8868ZM12.333 9.00065V2.33398C12.333 1.96579 12.0345 1.66732 11.6663 1.66732H2.33301C1.96482 1.66732 1.66634 1.96579 1.66634 2.33398V9.00065C1.66634 9.36884 1.96482 9.66732 2.33301 9.66732H11.6663C12.0345 9.66732 12.333 9.36884 12.333 9.00065ZM7.66634 3.00065H8.30174C8.66993 3.00065 8.96841 3.29913 8.96841 3.66732V3.97015C8.96841 4.33834 8.66993 4.63682 8.30174 4.63682C8.06779 4.63682 7.86199 4.51631 7.74302 4.33398H6.34231V5.00126H7.66635C8.40273 5.00126 8.99968 5.59821 8.99968 6.33459V7.00065C8.99968 7.73703 8.40273 8.33398 7.66635 8.33398C7.66318 8.69949 7.36592 8.99481 6.99967 8.99481C6.63343 8.99481 6.33617 8.69949 6.33303 8.33398H5.66635C5.29154 8.33398 4.9904 8.02511 4.99989 7.65043L5.00919 7.28373C5.01851 6.91566 5.32446 6.62484 5.69253 6.63417C5.94672 6.64061 6.16407 6.78851 6.27115 7.00065H7.66635V6.33459H6.34231C5.60593 6.33459 5.00897 5.73764 5.00897 5.00126V4.33398C5.00897 3.6007 5.60091 3.00568 6.33301 3.00068C6.33301 2.63246 6.63148 2.33398 6.99967 2.33398C7.36786 2.33398 7.66634 2.63246 7.66634 3.00065Z" fill="#50B5FF"/>
</svg>
