<svg width="18" height="19" viewBox="0 0 18 19" fill="none" xmlns="http://www.w3.org/2000/svg">
<path fill-rule="evenodd" clip-rule="evenodd" d="M8.94286 0.988281C4.00385 0.988281 0 4.99213 0 9.93114C0 14.8701 4.00385 18.874 8.94286 18.874C13.8819 18.874 17.8857 14.8701 17.8857 9.93114C17.8857 7.55934 16.9435 5.28469 15.2664 3.60758C13.5893 1.93047 11.3146 0.988281 8.94286 0.988281ZM8.9421 17.0852C4.99089 17.0852 1.78781 13.8822 1.78781 9.93096C1.78781 5.97975 4.99089 2.77667 8.9421 2.77667C12.8933 2.77667 16.0964 5.97975 16.0964 9.93096C16.0964 11.8284 15.3426 13.6481 14.0009 14.9898C12.6593 16.3315 10.8395 17.0852 8.9421 17.0852ZM9.83742 9.41206L11.7154 10.4941H11.6975C12.0519 10.6949 12.2258 11.1098 12.1206 11.5032C12.0154 11.8966 11.6576 12.1693 11.2504 12.1665C11.0937 12.1675 10.9395 12.1275 10.8032 12.0502L8.4781 10.7088L8.39762 10.6283L8.25453 10.512C8.21956 10.4678 8.18958 10.4198 8.1651 10.3689C8.13596 10.3209 8.11198 10.27 8.09356 10.2169C8.06924 10.1601 8.05414 10.0997 8.04885 10.0381V9.93074V5.45932C8.04885 4.96542 8.44923 4.56503 8.94313 4.56503C9.43703 4.56503 9.83742 4.96542 9.83742 5.45932V9.41206Z" fill="white"/>
</svg>
