<svg width="40" height="40" viewBox="0 0 40 40" fill="none" xmlns="http://www.w3.org/2000/svg">
<path d="M24.074 17.7648C22.8682 18.5705 21.4505 19.0006 20.0003 19.0007C18.056 18.9981 16.1921 18.2247 14.8173 16.8498C13.4425 15.475 12.669 13.611 12.6665 11.6667C12.6666 10.2165 13.0967 8.79893 13.9024 7.59314C14.7082 6.38718 15.8535 5.44725 17.1935 4.8922C18.5335 4.33716 20.008 4.19194 21.4305 4.4749C22.853 4.75785 24.1597 5.45629 25.1853 6.48187C26.2109 7.50746 26.9093 8.81413 27.1923 10.2367C27.4752 11.6592 27.33 13.1337 26.775 14.4737C26.2199 15.8137 25.28 16.959 24.074 17.7648ZM23.3333 6.6785C22.3466 6.01922 21.1865 5.66732 19.9998 5.66732C18.4085 5.66732 16.8824 6.29946 15.7572 7.42468C14.632 8.5499 13.9998 10.076 13.9998 11.6673C13.9998 12.854 14.3517 14.014 15.011 15.0007C15.6703 15.9874 16.6074 16.7565 17.7037 17.2106C18.8001 17.6647 20.0065 17.7835 21.1704 17.552C22.3343 17.3205 23.4034 16.7491 24.2425 15.91C25.0816 15.0708 25.653 14.0017 25.8846 12.8379C26.1161 11.674 25.9972 10.4676 25.5431 9.37122C25.089 8.27486 24.32 7.33779 23.3333 6.6785Z" fill="#1C3A27" stroke="#1C3A27" stroke-width="2"/>
<path d="M34.9766 33.0589C34.2508 29.685 32.342 26.6821 29.5953 24.5929C26.8486 22.5036 23.445 21.4659 19.9999 21.6672C16.5548 21.4659 13.1513 22.5036 10.4045 24.5929C7.65778 26.6821 5.74903 29.685 5.02324 33.0589L4.69824 35.0005H35.3016L34.9766 33.0589ZM8.91324 31.6672C9.98824 29.1255 12.8332 25.0005 19.9999 25.0005C27.1016 25.0005 29.9716 29.1222 31.0682 31.6672H8.91324Z" fill="black"/>
</svg>
