<svg width="29" height="29" viewBox="0 0 29 29" fill="none" xmlns="http://www.w3.org/2000/svg">
<path d="M24.9712 10.3378C25.5158 10.3378 26.0411 10.2674 26.5389 10.1368C26.568 10.4464 26.5825 10.7604 26.5825 11.0759V16.9447L28.8672 21.5812C28.9711 21.7932 29.0152 22.0255 28.9954 22.257C28.9756 22.4885 28.8927 22.7119 28.754 22.9067C28.6154 23.1016 28.4255 23.2619 28.2016 23.373C27.9777 23.4841 27.7269 23.5424 27.4719 23.5428H1.53046C1.27512 23.5428 1.02385 23.4846 0.799532 23.3735C0.575211 23.2625 0.384963 23.1021 0.246112 22.907C0.107262 22.7118 0.0242204 22.4882 0.00454954 22.2564C-0.0151213 22.0245 0.0292036 21.7919 0.133488 21.5797L2.41343 16.9433V11.0568L2.42149 10.69C2.49539 8.76538 3.12264 6.89215 4.24059 5.25744C5.35853 3.62274 6.92801 2.28382 8.79221 1.37445C10.6564 0.465088 12.75 0.0171317 14.8639 0.0753417C16.9778 0.133552 19.0378 0.69589 20.8383 1.70617C20.0906 2.43852 19.5941 3.35369 19.4095 4.33938C19.2249 5.32506 19.3604 6.33838 19.7992 7.25496C20.2381 8.17153 20.9613 8.95151 21.88 9.49915C22.7988 10.0468 23.8731 10.3383 24.9712 10.3378ZM19.2641 25.0145C19.0736 26.04 18.4904 26.9711 17.618 27.6424C16.7456 28.3138 15.6402 28.6822 14.4979 28.6822C13.3557 28.6822 12.2503 28.3138 11.3779 27.6424C10.5054 26.9711 9.92228 26.04 9.73181 25.0145H19.2641ZM24.9712 8.87062C26.0395 8.87062 27.0641 8.48416 27.8195 7.79627C28.575 7.10837 28.9994 6.17539 28.9994 5.20256C28.9994 4.22973 28.575 3.29675 27.8195 2.60885C27.0641 1.92096 26.0395 1.5345 24.9712 1.5345C23.9028 1.5345 22.8783 1.92096 22.1228 2.60885C21.3674 3.29675 20.943 4.22973 20.943 5.20256C20.943 6.17539 21.3674 7.10837 22.1228 7.79627C22.8783 8.48416 23.9028 8.87062 24.9712 8.87062Z" fill="white"/>
</svg>
