<svg width="49" height="31" viewBox="0 0 49 31" fill="none" xmlns="http://www.w3.org/2000/svg">
<path d="M23.7396 24.2917H25.3406V22.525C26.3712 22.3778 27.2457 21.9545 27.9641 21.2552C28.6811 20.5559 29.0396 19.6542 29.0396 18.55C29.0396 17.5931 28.6715 16.7922 27.9354 16.1473C27.1993 15.504 26.3528 14.9799 25.3958 14.575V10.4896C25.7639 10.6 26.0679 10.784 26.3079 11.0417C26.5464 11.2993 26.7208 11.6122 26.8312 11.9802L28.8187 11.1521C28.5611 10.3792 28.1194 9.76231 27.4937 9.3015C26.8681 8.84217 26.1687 8.53889 25.3958 8.39167V6.625H23.7396V8.33646C22.709 8.44687 21.8345 8.82376 21.1161 9.46712C20.3991 10.112 20.0406 10.9681 20.0406 12.0354C20.0406 13.0292 20.4182 13.8573 21.1735 14.5198C21.9273 15.1823 22.7826 15.716 23.7396 16.1208V20.4823C23.1507 20.2983 22.6538 19.9854 22.249 19.5438C21.8441 19.1021 21.5681 18.5868 21.4208 17.9979L19.4885 18.826C19.783 19.8566 20.2983 20.7031 21.0344 21.3656C21.7705 22.0281 22.6722 22.433 23.7396 22.5802V24.2917ZM25.3958 20.4271V16.7833C25.8007 16.9674 26.1599 17.1882 26.4735 17.4458C26.7856 17.7035 26.9417 18.0899 26.9417 18.6052C26.9417 19.1941 26.7944 19.6078 26.5 19.8463C26.2056 20.0863 25.8375 20.2799 25.3958 20.4271ZM23.7396 13.8573C23.3347 13.6733 22.9667 13.4524 22.6354 13.1948C22.3042 12.9372 22.1385 12.5507 22.1385 12.0354C22.1385 11.5201 22.3042 11.1432 22.6354 10.9047C22.9667 10.6648 23.3347 10.508 23.7396 10.4344V13.8573ZM15.4583 30.9167C11.1521 30.9167 7.4995 29.4165 4.50058 26.4161C1.50019 23.4172 0 19.7646 0 15.4583C0 11.1521 1.50019 7.49876 4.50058 4.49838C7.4995 1.49946 11.1521 0 15.4583 0H33.125C37.4312 0 41.0838 1.49946 44.0827 4.49838C47.0831 7.49876 48.5833 11.1521 48.5833 15.4583C48.5833 19.7646 47.0831 23.4172 44.0827 26.4161C41.0838 29.4165 37.4312 30.9167 33.125 30.9167H15.4583ZM15.4583 26.5H33.125C36.1799 26.5 38.7842 25.4231 40.9381 23.2692C43.0905 21.1168 44.1667 18.5132 44.1667 15.4583C44.1667 12.4035 43.0905 9.79911 40.9381 7.64525C38.7842 5.49286 36.1799 4.41667 33.125 4.41667H15.4583C12.4035 4.41667 9.79985 5.49286 7.64746 7.64525C5.4936 9.79911 4.41667 12.4035 4.41667 15.4583C4.41667 18.5132 5.4936 21.1168 7.64746 23.2692C9.79985 25.4231 12.4035 26.5 15.4583 26.5Z" fill="#1B4002"/>
</svg>
