<svg width="51" height="51" viewBox="0 0 51 51" fill="none" xmlns="http://www.w3.org/2000/svg">
<path d="M25.4995 48.3438C12.8983 48.3438 2.65576 38.1013 2.65576 25.5C2.65576 12.8988 12.8983 2.65625 25.4995 2.65625C38.1008 2.65625 48.3433 12.8988 48.3433 25.5C48.3433 38.1013 38.1008 48.3438 25.4995 48.3438ZM25.4995 5.84375C14.662 5.84375 5.84326 14.6625 5.84326 25.5C5.84326 36.3375 14.662 45.1563 25.4995 45.1563C36.337 45.1563 45.1558 36.3375 45.1558 25.5C45.1558 14.6625 36.337 5.84375 25.4995 5.84375Z" fill="black"/>
<path d="M19.4864 33.1081C19.0826 33.1081 18.6789 32.9594 18.3601 32.6406C17.7439 32.0244 17.7439 31.0044 18.3601 30.3881L30.3876 18.3606C31.0039 17.7444 32.0239 17.7444 32.6401 18.3606C33.2564 18.9769 33.2564 19.9969 32.6401 20.6131L20.6126 32.6406C20.3151 32.9594 19.8901 33.1081 19.4864 33.1081Z" fill="black"/>
<path d="M31.5139 33.1081C31.1101 33.1081 30.7064 32.9594 30.3876 32.6406L18.3601 20.6131C17.7439 19.9969 17.7439 18.9769 18.3601 18.3606C18.9764 17.7444 19.9964 17.7444 20.6126 18.3606L32.6401 30.3881C33.2564 31.0044 33.2564 32.0244 32.6401 32.6406C32.3214 32.9594 31.9176 33.1081 31.5139 33.1081Z" fill="black"/>
</svg>
